<?xml version="1.0" encoding="utf-8"?>
<!-- Generator: Adobe Illustrator 16.0.0, SVG Export Plug-In . SVG Version: 6.00 Build 0)  -->
<!DOCTYPE svg PUBLIC "-//W3C//DTD SVG 1.1//EN" "http://www.w3.org/Graphics/SVG/1.1/DTD/svg11.dtd">
<svg version="1.1" id="Layer_1" xmlns="http://www.w3.org/2000/svg" xmlns:xlink="http://www.w3.org/1999/xlink" x="0px" y="0px"
	 width="100px" height="100px" viewBox="0 0 100 100" enable-background="new 0 0 100 100" xml:space="preserve">
<g>
	<path d="M73.757,59.095c0,6.064-0.114,10.895-0.34,14.492c-0.227,3.6-0.468,5.853-0.723,6.758c-0.255,0.907-0.609,1.475-1.063,1.7
		c-0.454,0.227-1.219,0.34-2.295,0.34h-10.2c-0.68,0-1.119-0.099-1.317-0.298c-0.199-0.197-0.297-0.58-0.297-1.147
		c0-0.112,0.353-1.133,1.063-3.06c0.708-1.926,1.203-3.4,1.487-4.42c1.02-3.286,1.742-6.219,2.167-8.798
		c0.426-2.578,0.638-4.745,0.638-6.502c0-4.816-2.154-7.226-6.46-7.226c-2.607,0-5.114,0.327-7.522,0.978
		c-2.409,0.652-4.435,1.517-6.078,2.593c-1.644,1.077-2.819,2.38-3.527,3.91c-0.709,1.529-1.063,3.542-1.063,6.035
		c0,3.116,0.425,6.092,1.275,8.925c0.963,2.55,1.926,5.072,2.89,7.564c0,0.965-0.567,1.445-1.7,1.445H29.897
		c-1.417,0-2.295-0.58-2.635-1.742c-0.34-1.161-0.595-3.655-0.765-7.48s-0.255-9.193-0.255-16.107c0-7.763,0.212-14.25,0.637-19.465
		c0.425-5.213,1.233-10.256,2.423-15.13c0.565-2.323,1.005-3.711,1.317-4.165c0.311-0.453,1.09-0.68,2.337-0.68h10.115
		c1.133,0,1.7,0.343,1.7,1.028c-1.644,3.14-3.06,6.48-4.25,10.021c-1.36,3.939-2.04,7.622-2.04,11.047
		c0,0.967,0.085,1.718,0.255,2.256c0.17,0.539,0.821,0.808,1.955,0.808c2.436-0.68,4.788-1.275,7.055-1.785
		c2.266-0.51,4.476-0.765,6.63-0.765h4.505c0.906,0,1.501-0.17,1.785-0.51c0.283-0.34,0.425-0.963,0.425-1.87
		c0-0.85-0.199-2.167-0.595-3.953c-0.397-1.785-1.134-3.98-2.21-6.587c-0.68-1.643-1.587-3.625-2.72-5.95
		c-0.737-1.473-1.105-2.38-1.105-2.72c0-0.68,0.566-1.02,1.7-1.02h10.115c1.189,0,1.955,0.255,2.295,0.765
		c0.34,0.51,0.793,1.87,1.359,4.08c1.134,4.76,2.054,10.044,2.763,15.853C73.402,44.121,73.757,51.049,73.757,59.095z"/>
</g>
</svg>
