<?xml version="1.0" encoding="utf-8"?>
<!-- Generator: Adobe Illustrator 16.0.0, SVG Export Plug-In . SVG Version: 6.00 Build 0)  -->
<!DOCTYPE svg PUBLIC "-//W3C//DTD SVG 1.1//EN" "http://www.w3.org/Graphics/SVG/1.1/DTD/svg11.dtd">
<svg version="1.1" id="Layer_1" xmlns="http://www.w3.org/2000/svg" xmlns:xlink="http://www.w3.org/1999/xlink" x="0px" y="0px"
	 width="500px" height="500px" viewBox="0 0 500 500" style="enable-background:new 0 0 500 500;" xml:space="preserve">
<style type="text/css">
	.st0{fill:none;stroke:#231F20;stroke-linecap:round;stroke-linejoin:round;stroke-miterlimit:10;}
</style>
<path class="st0" d="M83.22,9.859c0,0-15.403,142.841,155.468,206.92c170.872,64.078,52.726,130.825,68.75,193.568
	c16.022,62.743,126.151,42.046,125.484,74.087"/>
<path class="st0" d="M88.682,9.859c0,0,5.894,144.986,152.193,213.182c146.299,68.195,58.794,123.696,73.98,186.625
	c15.184,62.928,111.695,44.559,114.994,74.769"/>
<path class="st0" d="M94.143,9.859c0,0,27.191,147.131,148.917,219.443c121.727,72.312,64.864,116.568,79.209,179.681
	c14.346,63.112,97.239,47.071,104.505,75.451"/>
<path class="st0" d="M99.604,9.859c0,0,48.488,149.275,145.642,225.705c97.154,76.428,70.932,109.439,84.439,172.737
	c13.507,63.298,82.783,49.584,94.014,76.134"/>
<path class="st0" d="M105.066,9.859c0,0,69.786,151.42,142.366,231.966c72.582,80.546,77.001,102.311,89.67,165.793
	c12.668,63.483,68.326,52.098,83.524,76.816"/>
<path class="st0" d="M110.527,9.859c0,0,91.083,153.565,139.091,238.228c48.009,84.663,83.069,95.182,94.899,158.85
	c11.829,63.667,53.87,54.61,73.033,77.498"/>
<path class="st0" d="M115.989,9.859c0,0,112.379,155.71,135.814,244.49c23.437,88.779,89.139,88.053,100.13,151.905
	c10.99,63.853,39.414,57.123,62.543,78.181"/>
<path class="st0" d="M121.45,9.859c0,0,133.677,157.855,132.54,250.751c-1.138,92.896,95.207,80.924,105.358,144.962
	c10.152,64.037,24.958,59.636,52.054,78.862"/>
<path class="st0" d="M126.912,9.859c0,0,154.973,160,129.264,257.013c-25.71,97.014,101.275,73.795,110.589,138.018
	c9.313,64.222,10.502,62.149,41.563,79.545"/>
<path class="st0" d="M132.373,9.859c0,0,176.271,162.145,125.988,263.275S365.706,339.8,374.181,404.207
	s-3.955,64.662,31.073,80.228"/>
</svg>
