<?xml version="1.0" encoding="utf-8"?>
<!-- Generator: Adobe Illustrator 16.0.0, SVG Export Plug-In . SVG Version: 6.00 Build 0)  -->
<!DOCTYPE svg PUBLIC "-//W3C//DTD SVG 1.1//EN" "http://www.w3.org/Graphics/SVG/1.1/DTD/svg11.dtd">
<svg version="1.1" id="Layer_1" xmlns="http://www.w3.org/2000/svg" xmlns:xlink="http://www.w3.org/1999/xlink" x="0px" y="0px"
	 width="50px" height="50px" viewBox="0 0 50 50" enable-background="new 0 0 50 50" xml:space="preserve">
<circle fill="#FFCE00" cx="25" cy="25" r="9.656"/>
<path display="none" fill="#A3D4F7" d="M42.889,29.443c0-3.785-3.066-6.855-6.853-6.855c-0.431,0-0.849,0.044-1.259,0.121
	c-0.403-2.48-2.539-4.378-5.133-4.378c-0.955,0-1.836,0.275-2.607,0.722c-0.982-2.912-3.729-5.012-6.973-5.012
	c-4.066,0-7.363,3.297-7.363,7.364c0,0.963,0.19,1.88,0.526,2.723c-0.013,0-0.024-0.004-0.037-0.004
	c-3.356,0-6.078,2.72-6.078,6.076c0,3.188,2.465,5.774,5.589,6.028v0.039h0.378c0.038,0,0.073,0.01,0.111,0.01s0.073-0.01,0.11-0.01
	h22.16c0.19,0.016,0.382,0.027,0.576,0.027s0.385-0.013,0.573-0.027h0.045v-0.004C40.148,35.951,42.889,33.02,42.889,29.443z"/>
<g>
	
		<line fill="none" stroke="#FFCE00" stroke-width="3" stroke-linecap="round" stroke-miterlimit="10" x1="24.583" y1="11.813" x2="24.583" y2="5.375"/>
	
		<line fill="none" stroke="#FFCE00" stroke-width="3" stroke-linecap="round" stroke-miterlimit="10" x1="15.379" y1="15.969" x2="10.829" y2="11.417"/>
	
		<line fill="none" stroke="#FFCE00" stroke-width="3" stroke-linecap="round" stroke-miterlimit="10" x1="11.811" y1="25.417" x2="5.375" y2="25.416"/>
	
		<line fill="none" stroke="#FFCE00" stroke-width="3" stroke-linecap="round" stroke-miterlimit="10" x1="15.969" y1="34.621" x2="11.417" y2="39.171"/>
	
		<line fill="none" stroke="#FFCE00" stroke-width="3" stroke-linecap="round" stroke-miterlimit="10" x1="25.419" y1="38.188" x2="25.416" y2="44.625"/>
	
		<line fill="none" stroke="#FFCE00" stroke-width="3" stroke-linecap="round" stroke-miterlimit="10" x1="34.622" y1="34.03" x2="39.172" y2="38.584"/>
	
		<line fill="none" stroke="#FFCE00" stroke-width="3" stroke-linecap="round" stroke-miterlimit="10" x1="38.189" y1="24.582" x2="44.627" y2="24.585"/>
	
		<line fill="none" stroke="#FFCE00" stroke-width="3" stroke-linecap="round" stroke-miterlimit="10" x1="34.031" y1="15.379" x2="38.586" y2="10.83"/>
</g>
</svg>
