<?xml version="1.0" encoding="utf-8"?>
<!-- Generator: Adobe Illustrator 16.0.0, SVG Export Plug-In . SVG Version: 6.00 Build 0)  -->
<!DOCTYPE svg PUBLIC "-//W3C//DTD SVG 1.1//EN" "http://www.w3.org/Graphics/SVG/1.1/DTD/svg11.dtd">
<svg version="1.1" id="Layer_1" xmlns="http://www.w3.org/2000/svg" xmlns:xlink="http://www.w3.org/1999/xlink" x="0px" y="0px"
	 width="50px" height="50px" viewBox="0 0 50 50" enable-background="new 0 0 50 50" xml:space="preserve">
<circle display="none" fill="#E8BD0A" cx="25.043" cy="24.999" r="11.044"/>
<path fill="#FFCE00" d="M40.345,23.982c-4.388,0-7.944-3.557-7.944-7.945c0-2.906,1.563-5.44,3.893-6.825
	c-0.231-0.017-0.462-0.035-0.698-0.035c-4.976,0-9.012,4.035-9.012,9.013c0,4.979,4.036,9.012,9.012,9.012
	c2.949,0,5.558-1.422,7.202-3.609C42.024,23.843,41.201,23.982,40.345,23.982z"/>
<g display="none">
	
		<line display="inline" fill="none" stroke="#FFCE00" stroke-width="3" stroke-linecap="round" stroke-miterlimit="10" x1="24.583" y1="11.813" x2="24.583" y2="5.375"/>
	
		<line display="inline" fill="none" stroke="#FFCE00" stroke-width="3" stroke-linecap="round" stroke-miterlimit="10" x1="15.379" y1="15.969" x2="10.829" y2="11.417"/>
	
		<line display="inline" fill="none" stroke="#FFCE00" stroke-width="3" stroke-linecap="round" stroke-miterlimit="10" x1="11.811" y1="25.417" x2="5.375" y2="25.416"/>
	
		<line display="inline" fill="none" stroke="#FFCE00" stroke-width="3" stroke-linecap="round" stroke-miterlimit="10" x1="15.969" y1="34.621" x2="11.417" y2="39.171"/>
	
		<line display="inline" fill="none" stroke="#FFCE00" stroke-width="3" stroke-linecap="round" stroke-miterlimit="10" x1="25.419" y1="38.188" x2="25.416" y2="44.625"/>
	
		<line display="inline" fill="none" stroke="#FFCE00" stroke-width="3" stroke-linecap="round" stroke-miterlimit="10" x1="34.622" y1="34.03" x2="39.172" y2="38.584"/>
	
		<line display="inline" fill="none" stroke="#FFCE00" stroke-width="3" stroke-linecap="round" stroke-miterlimit="10" x1="38.189" y1="24.582" x2="44.627" y2="24.585"/>
	
		<line display="inline" fill="none" stroke="#FFCE00" stroke-width="3" stroke-linecap="round" stroke-miterlimit="10" x1="34.031" y1="15.379" x2="38.586" y2="10.83"/>
</g>
<path display="none" fill="#065789" d="M43.39,17.605c0-2.136-1.729-3.867-3.864-3.867c-0.243,0-0.479,0.024-0.711,0.068
	c-0.227-1.399-1.432-2.47-2.895-2.47c-0.539,0-1.036,0.155-1.471,0.407c-0.555-1.643-2.104-2.827-3.934-2.827
	c-2.294,0-4.152,1.859-4.152,4.154c0,0.543,0.107,1.061,0.296,1.536c-0.007,0-0.013-0.003-0.021-0.003
	c-1.895,0-3.431,1.534-3.431,3.428c0,1.798,1.391,3.257,3.156,3.399v0.023h0.213c0.021,0,0.041,0.006,0.063,0.006
	s0.041-0.006,0.062-0.006h12.5c0.107,0.008,0.215,0.016,0.325,0.016c0.109,0,0.217-0.008,0.322-0.016h0.026v-0.002
	C41.845,21.275,43.39,19.622,43.39,17.605z"/>
<path fill="#A3D4F7" d="M42.39,29.275c0-3.785-3.066-6.855-6.853-6.855c-0.431,0-0.849,0.044-1.259,0.121
	c-0.403-2.48-2.539-4.378-5.133-4.378c-0.955,0-1.836,0.274-2.607,0.722c-0.982-2.912-3.729-5.012-6.974-5.012
	c-4.066,0-7.363,3.297-7.363,7.363c0,0.964,0.19,1.881,0.526,2.724c-0.013,0-0.024-0.004-0.037-0.004
	c-3.356,0-6.078,2.72-6.078,6.076c0,3.188,2.465,5.774,5.589,6.028V36.1h0.378c0.038,0,0.073,0.01,0.111,0.01s0.073-0.01,0.11-0.01
	h22.161c0.19,0.016,0.382,0.027,0.576,0.027s0.385-0.013,0.573-0.027h0.045v-0.004C39.649,35.783,42.39,32.852,42.39,29.275z"/>
<g display="none">
	<path display="inline" fill="#00AAFF" d="M13.32,33.298c0-2.137,2.128-4.329,2.128-4.329s2.129,2.137,2.129,4.329
		c0,1.176-0.953,2.129-2.129,2.129S13.32,34.474,13.32,33.298z"/>
	<path display="inline" fill="#00AAFF" d="M19.789,38.954c0-2.137,2.128-4.329,2.128-4.329s2.129,2.137,2.129,4.329
		c0,1.176-0.953,2.129-2.129,2.129S19.789,40.13,19.789,38.954z"/>
	<path display="inline" fill="#00AAFF" d="M27.321,35.726c0-2.137,2.128-4.329,2.128-4.329s2.129,2.137,2.129,4.329
		c0,1.176-0.953,2.129-2.129,2.129S27.321,36.901,27.321,35.726z"/>
</g>
<g display="none">
	
		<polygon display="inline" fill="#FFE600" stroke="#FFE600" stroke-width="0.5" stroke-linecap="round" stroke-linejoin="round" stroke-miterlimit="10" points="
		28.192,39.521 30.381,39.878 26.892,44.689 27.443,41.312 25.503,40.995 28.809,36.055 	"/>
	
		<polygon display="inline" fill="#FFE600" stroke="#FFE600" stroke-width="0.5" stroke-linecap="round" stroke-linejoin="round" stroke-miterlimit="10" points="
		17.054,33.497 19.243,33.854 15.753,38.666 16.305,35.288 14.365,34.972 17.671,30.031 	"/>
</g>
<g display="none">
	<g display="inline">
		
			<line fill="none" stroke="#80C7EA" stroke-width="2" stroke-linecap="round" stroke-linejoin="round" stroke-miterlimit="10" x1="25" y1="41.992" x2="25" y2="8.008"/>
		<g>
			
				<line fill="none" stroke="#80C7EA" stroke-width="2" stroke-linecap="round" stroke-linejoin="round" stroke-miterlimit="10" x1="21.621" y1="8.731" x2="24.881" y2="11.993"/>
			
				<line fill="none" stroke="#80C7EA" stroke-width="2" stroke-linecap="round" stroke-linejoin="round" stroke-miterlimit="10" x1="28.32" y1="8.731" x2="25.06" y2="11.993"/>
			<g>
				
					<line fill="none" stroke="#80C7EA" stroke-width="2" stroke-linecap="round" stroke-linejoin="round" stroke-miterlimit="10" x1="21.621" y1="12.787" x2="24.881" y2="16.048"/>
				
					<line fill="none" stroke="#80C7EA" stroke-width="2" stroke-linecap="round" stroke-linejoin="round" stroke-miterlimit="10" x1="28.32" y1="12.787" x2="25.06" y2="16.048"/>
			</g>
		</g>
		<g>
			
				<line fill="none" stroke="#80C7EA" stroke-width="2" stroke-linecap="round" stroke-linejoin="round" stroke-miterlimit="10" x1="28.381" y1="40.984" x2="25.119" y2="37.721"/>
			
				<line fill="none" stroke="#80C7EA" stroke-width="2" stroke-linecap="round" stroke-linejoin="round" stroke-miterlimit="10" x1="21.679" y1="40.984" x2="24.935" y2="37.721"/>
			<g>
				
					<line fill="none" stroke="#80C7EA" stroke-width="2" stroke-linecap="round" stroke-linejoin="round" stroke-miterlimit="10" x1="28.381" y1="36.927" x2="25.119" y2="33.667"/>
				
					<line fill="none" stroke="#80C7EA" stroke-width="2" stroke-linecap="round" stroke-linejoin="round" stroke-miterlimit="10" x1="21.679" y1="36.927" x2="24.935" y2="33.667"/>
			</g>
		</g>
	</g>
	<g display="inline">
		
			<line fill="none" stroke="#80C7EA" stroke-width="2" stroke-linecap="round" stroke-linejoin="round" stroke-miterlimit="10" x1="37.015" y1="37.01" x2="12.986" y2="12.989"/>
		<g>
			
				<line fill="none" stroke="#80C7EA" stroke-width="2" stroke-linecap="round" stroke-linejoin="round" stroke-miterlimit="10" x1="11.113" y1="15.889" x2="15.72" y2="15.889"/>
			
				<line fill="none" stroke="#80C7EA" stroke-width="2" stroke-linecap="round" stroke-linejoin="round" stroke-miterlimit="10" x1="15.845" y1="11.151" x2="15.845" y2="15.758"/>
			<g>
				
					<line fill="none" stroke="#80C7EA" stroke-width="2" stroke-linecap="round" stroke-linejoin="round" stroke-miterlimit="10" x1="13.978" y1="18.753" x2="18.585" y2="18.753"/>
				
					<line fill="none" stroke="#80C7EA" stroke-width="2" stroke-linecap="round" stroke-linejoin="round" stroke-miterlimit="10" x1="18.715" y1="14.014" x2="18.715" y2="18.627"/>
			</g>
		</g>
		<g>
			
				<line fill="none" stroke="#80C7EA" stroke-width="2" stroke-linecap="round" stroke-linejoin="round" stroke-miterlimit="10" x1="38.692" y1="33.914" x2="34.083" y2="33.914"/>
			
				<line fill="none" stroke="#80C7EA" stroke-width="2" stroke-linecap="round" stroke-linejoin="round" stroke-miterlimit="10" x1="33.953" y1="38.654" x2="33.953" y2="34.039"/>
			<g>
				
					<line fill="none" stroke="#80C7EA" stroke-width="2" stroke-linecap="round" stroke-linejoin="round" stroke-miterlimit="10" x1="35.828" y1="31.045" x2="31.215" y2="31.045"/>
				
					<line fill="none" stroke="#80C7EA" stroke-width="2" stroke-linecap="round" stroke-linejoin="round" stroke-miterlimit="10" x1="31.085" y1="35.788" x2="31.085" y2="31.176"/>
			</g>
		</g>
	</g>
	<g display="inline">
		
			<line fill="none" stroke="#80C7EA" stroke-width="2" stroke-linecap="round" stroke-linejoin="round" stroke-miterlimit="10" x1="41.994" y1="25.002" x2="8.005" y2="25.002"/>
		<g>
			
				<line fill="none" stroke="#80C7EA" stroke-width="2" stroke-linecap="round" stroke-linejoin="round" stroke-miterlimit="10" x1="8.729" y1="28.383" x2="11.99" y2="25.115"/>
			
				<line fill="none" stroke="#80C7EA" stroke-width="2" stroke-linecap="round" stroke-linejoin="round" stroke-miterlimit="10" x1="8.729" y1="21.676" x2="11.99" y2="24.938"/>
			<g>
				
					<line fill="none" stroke="#80C7EA" stroke-width="2" stroke-linecap="round" stroke-linejoin="round" stroke-miterlimit="10" x1="12.785" y1="28.383" x2="16.046" y2="25.115"/>
				
					<line fill="none" stroke="#80C7EA" stroke-width="2" stroke-linecap="round" stroke-linejoin="round" stroke-miterlimit="10" x1="12.785" y1="21.676" x2="16.046" y2="24.938"/>
			</g>
		</g>
		<g>
			
				<line fill="none" stroke="#80C7EA" stroke-width="2" stroke-linecap="round" stroke-linejoin="round" stroke-miterlimit="10" x1="40.986" y1="21.616" x2="37.725" y2="24.878"/>
			
				<line fill="none" stroke="#80C7EA" stroke-width="2" stroke-linecap="round" stroke-linejoin="round" stroke-miterlimit="10" x1="40.986" y1="28.322" x2="37.719" y2="25.061"/>
			<g>
				
					<line fill="none" stroke="#80C7EA" stroke-width="2" stroke-linecap="round" stroke-linejoin="round" stroke-miterlimit="10" x1="36.931" y1="21.616" x2="33.67" y2="24.878"/>
				
					<line fill="none" stroke="#80C7EA" stroke-width="2" stroke-linecap="round" stroke-linejoin="round" stroke-miterlimit="10" x1="36.931" y1="28.322" x2="33.67" y2="25.061"/>
			</g>
		</g>
	</g>
	<g display="inline">
		
			<line fill="none" stroke="#80C7EA" stroke-width="2" stroke-linecap="round" stroke-linejoin="round" stroke-miterlimit="10" x1="37.015" y1="12.989" x2="12.986" y2="37.01"/>
		<g>
			
				<line fill="none" stroke="#80C7EA" stroke-width="2" stroke-linecap="round" stroke-linejoin="round" stroke-miterlimit="10" x1="15.88" y1="38.891" x2="15.88" y2="34.282"/>
			
				<line fill="none" stroke="#80C7EA" stroke-width="2" stroke-linecap="round" stroke-linejoin="round" stroke-miterlimit="10" x1="11.148" y1="34.151" x2="15.755" y2="34.151"/>
			<g>
				
					<line fill="none" stroke="#80C7EA" stroke-width="2" stroke-linecap="round" stroke-linejoin="round" stroke-miterlimit="10" x1="18.757" y1="36.024" x2="18.757" y2="31.417"/>
				
					<line fill="none" stroke="#80C7EA" stroke-width="2" stroke-linecap="round" stroke-linejoin="round" stroke-miterlimit="10" x1="14.019" y1="31.288" x2="18.625" y2="31.288"/>
			</g>
		</g>
		<g>
			
				<line fill="none" stroke="#80C7EA" stroke-width="2" stroke-linecap="round" stroke-linejoin="round" stroke-miterlimit="10" x1="33.911" y1="11.311" x2="33.911" y2="15.918"/>
			
				<line fill="none" stroke="#80C7EA" stroke-width="2" stroke-linecap="round" stroke-linejoin="round" stroke-miterlimit="10" x1="38.649" y1="16.048" x2="34.037" y2="16.048"/>
			<g>
				
					<line fill="none" stroke="#80C7EA" stroke-width="2" stroke-linecap="round" stroke-linejoin="round" stroke-miterlimit="10" x1="31.047" y1="14.174" x2="31.047" y2="18.783"/>
				
					<line fill="none" stroke="#80C7EA" stroke-width="2" stroke-linecap="round" stroke-linejoin="round" stroke-miterlimit="10" x1="35.78" y1="18.913" x2="31.173" y2="18.913"/>
			</g>
		</g>
	</g>
</g>
<image display="none" overflow="visible" width="512" height="512" xlink:href="fog.png"  transform="matrix(0.0414 0 0 0.0414 14.4072 15.5)">
</image>
<g display="none">
	<path display="inline" fill="#D3DDEA" d="M22.578,16.91c0,0.714-0.597,1.293-1.332,1.293H10.027c-0.735,0-1.332-0.579-1.332-1.293
		l0,0c0-0.713,0.597-1.292,1.332-1.292h11.219C21.981,15.618,22.578,16.197,22.578,16.91L22.578,16.91z"/>
	<path display="inline" fill="#D3DDEA" d="M39.497,22.363c0,0.719-0.583,1.302-1.302,1.302H14.566c-0.719,0-1.302-0.583-1.302-1.302
		l0,0c0-0.719,0.583-1.302,1.302-1.302h23.629C38.914,21.061,39.497,21.644,39.497,22.363L39.497,22.363z"/>
	<path display="inline" fill="#D3DDEA" d="M31.831,33.055c0,0.735-0.592,1.327-1.327,1.327H8.917c-0.732,0-1.327-0.592-1.327-1.327
		l0,0c0-0.732,0.594-1.326,1.327-1.326h21.587C31.239,31.729,31.831,32.322,31.831,33.055L31.831,33.055z"/>
	<path display="inline" fill="#D3DDEA" d="M34.69,16.91c0,0.714-0.579,1.293-1.291,1.293h-7.063c-0.713,0-1.292-0.579-1.292-1.293
		l0,0c0-0.713,0.579-1.292,1.292-1.292h7.063C34.111,15.618,34.69,16.197,34.69,16.91L34.69,16.91z"/>
	<path display="inline" fill="#D3DDEA" d="M40.949,28.871H37.88h-2.356c0.446-0.208,0.76-0.652,0.76-1.175
		c0-0.72-0.583-1.303-1.303-1.303h-2.039h-6.226c-0.755,0-1.365-0.609-1.365-1.364c0-0.755,0.61-1.365,1.365-1.365h-10.5
		c0.761,0,1.378,0.617,1.378,1.378c0,0.714-0.553,1.284-1.252,1.351h-4.991c-0.719,0-1.301,0.583-1.301,1.303
		c0,0.719,0.583,1.302,1.301,1.302h7.58c0.454,0.241,0.781,0.742,0.781,1.367c0,0.599-0.297,1.104-0.721,1.363h4.433
		c-0.423-0.26-0.722-0.765-0.722-1.363c0-0.625,0.328-1.126,0.781-1.367h5.798c0.453,0.241,0.779,0.742,0.779,1.367
		c0,0.599-0.297,1.104-0.722,1.363h11.611c0.807,0,1.461-0.64,1.461-1.43C42.41,29.51,41.756,28.871,40.949,28.871z"/>
</g>
<g display="none">
	<polygon display="inline" fill="#FFCE00" points="28.723,13.724 29.169,15.758 31.241,15.963 29.444,17.016 29.891,19.051 
		28.333,17.667 26.536,18.72 27.371,16.812 25.814,15.427 27.888,15.632 	"/>
	<polygon display="inline" fill="#FFCE00" points="35.97,17.598 36.642,20.665 39.766,20.974 37.057,22.56 37.729,25.627 
		35.383,23.541 32.674,25.128 33.934,22.252 31.587,20.166 34.712,20.475 	"/>
</g>
</svg>
