<?xml version="1.0" encoding="utf-8"?>
<!-- Generator: Adobe Illustrator 16.0.0, SVG Export Plug-In . SVG Version: 6.00 Build 0)  -->
<!DOCTYPE svg PUBLIC "-//W3C//DTD SVG 1.1//EN" "http://www.w3.org/Graphics/SVG/1.1/DTD/svg11.dtd">
<svg version="1.1" id="Layer_1" xmlns="http://www.w3.org/2000/svg" xmlns:xlink="http://www.w3.org/1999/xlink" x="0px" y="0px"
	 width="50px" height="50px" viewBox="0 0 50 50" enable-background="new 0 0 50 50" xml:space="preserve">
<circle display="none" fill="#FFCE00" cx="25" cy="25" r="9.656"/>
<path fill="#065789" d="M43.889,22.054c0-2.135-1.729-3.867-3.864-3.867c-0.243,0-0.479,0.024-0.711,0.068
	c-0.227-1.399-1.432-2.469-2.895-2.469c-0.539,0-1.036,0.155-1.471,0.407c-0.555-1.643-2.104-2.827-3.934-2.827
	c-2.294,0-4.152,1.859-4.152,4.154c0,0.543,0.107,1.061,0.296,1.536c-0.007,0-0.013-0.002-0.021-0.002
	c-1.895,0-3.431,1.534-3.431,3.427c0,1.798,1.391,3.257,3.155,3.399v0.023h0.213c0.021,0,0.041,0.006,0.063,0.006
	s0.041-0.006,0.062-0.006h12.5c0.107,0.008,0.215,0.016,0.325,0.016c0.109,0,0.217-0.008,0.322-0.016h0.026v-0.002
	C42.344,25.724,43.889,24.07,43.889,22.054z"/>
<path fill="#A3D4F7" d="M42.889,29.443c0-3.785-3.066-6.855-6.853-6.855c-0.431,0-0.849,0.044-1.259,0.121
	c-0.403-2.48-2.539-4.378-5.133-4.378c-0.955,0-1.836,0.275-2.607,0.722c-0.982-2.912-3.729-5.012-6.973-5.012
	c-4.066,0-7.363,3.297-7.363,7.364c0,0.963,0.19,1.88,0.526,2.723c-0.013,0-0.024-0.004-0.037-0.004
	c-3.356,0-6.078,2.72-6.078,6.076c0,3.188,2.465,5.774,5.589,6.028v0.039h0.378c0.038,0,0.073,0.01,0.111,0.01s0.073-0.01,0.11-0.01
	h22.16c0.19,0.016,0.382,0.027,0.576,0.027s0.385-0.013,0.573-0.027h0.045v-0.004C40.148,35.951,42.889,33.02,42.889,29.443z"/>
<g display="none">
	
		<line display="inline" fill="none" stroke="#FFCE00" stroke-width="3" stroke-linecap="round" stroke-miterlimit="10" x1="24.583" y1="11.813" x2="24.583" y2="5.375"/>
	
		<line display="inline" fill="none" stroke="#FFCE00" stroke-width="3" stroke-linecap="round" stroke-miterlimit="10" x1="15.379" y1="15.969" x2="10.829" y2="11.417"/>
	
		<line display="inline" fill="none" stroke="#FFCE00" stroke-width="3" stroke-linecap="round" stroke-miterlimit="10" x1="11.811" y1="25.417" x2="5.375" y2="25.416"/>
	
		<line display="inline" fill="none" stroke="#FFCE00" stroke-width="3" stroke-linecap="round" stroke-miterlimit="10" x1="15.969" y1="34.621" x2="11.417" y2="39.171"/>
	
		<line display="inline" fill="none" stroke="#FFCE00" stroke-width="3" stroke-linecap="round" stroke-miterlimit="10" x1="25.419" y1="38.188" x2="25.416" y2="44.625"/>
	
		<line display="inline" fill="none" stroke="#FFCE00" stroke-width="3" stroke-linecap="round" stroke-miterlimit="10" x1="34.622" y1="34.03" x2="39.172" y2="38.584"/>
	
		<line display="inline" fill="none" stroke="#FFCE00" stroke-width="3" stroke-linecap="round" stroke-miterlimit="10" x1="38.189" y1="24.582" x2="44.627" y2="24.585"/>
	
		<line display="inline" fill="none" stroke="#FFCE00" stroke-width="3" stroke-linecap="round" stroke-miterlimit="10" x1="34.031" y1="15.379" x2="38.586" y2="10.83"/>
</g>
</svg>
