<?xml version="1.0" encoding="utf-8"?>
<!-- Generator: Adobe Illustrator 16.0.0, SVG Export Plug-In . SVG Version: 6.00 Build 0)  -->
<!DOCTYPE svg PUBLIC "-//W3C//DTD SVG 1.1//EN" "http://www.w3.org/Graphics/SVG/1.1/DTD/svg11.dtd">
<svg version="1.1" id="Layer_1" xmlns="http://www.w3.org/2000/svg" xmlns:xlink="http://www.w3.org/1999/xlink" x="0px" y="0px"
	 width="50px" height="50px" viewBox="0 0 50 50" enable-background="new 0 0 50 50" xml:space="preserve">
<circle display="none" fill="#FFCE00" cx="32.732" cy="16.063" r="9.656"/>
<g display="none">
	
		<line display="inline" fill="none" stroke="#FFCE00" stroke-width="3" stroke-linecap="round" stroke-miterlimit="10" x1="24.583" y1="11.813" x2="24.583" y2="5.375"/>
	
		<line display="inline" fill="none" stroke="#FFCE00" stroke-width="3" stroke-linecap="round" stroke-miterlimit="10" x1="15.379" y1="15.969" x2="10.829" y2="11.417"/>
	
		<line display="inline" fill="none" stroke="#FFCE00" stroke-width="3" stroke-linecap="round" stroke-miterlimit="10" x1="11.811" y1="25.417" x2="5.375" y2="25.416"/>
	
		<line display="inline" fill="none" stroke="#FFCE00" stroke-width="3" stroke-linecap="round" stroke-miterlimit="10" x1="15.969" y1="34.621" x2="11.417" y2="39.171"/>
	
		<line display="inline" fill="none" stroke="#FFCE00" stroke-width="3" stroke-linecap="round" stroke-miterlimit="10" x1="25.419" y1="38.188" x2="25.416" y2="44.625"/>
	
		<line display="inline" fill="none" stroke="#FFCE00" stroke-width="3" stroke-linecap="round" stroke-miterlimit="10" x1="34.622" y1="34.03" x2="39.172" y2="38.584"/>
	
		<line display="inline" fill="none" stroke="#FFCE00" stroke-width="3" stroke-linecap="round" stroke-miterlimit="10" x1="38.189" y1="24.582" x2="44.627" y2="24.585"/>
	
		<line display="inline" fill="none" stroke="#FFCE00" stroke-width="3" stroke-linecap="round" stroke-miterlimit="10" x1="34.031" y1="15.379" x2="38.586" y2="10.83"/>
</g>
<path display="none" fill="#065789" d="M43.39,17.605c0-2.136-1.729-3.867-3.864-3.867c-0.243,0-0.479,0.024-0.711,0.068
	c-0.227-1.399-1.432-2.47-2.895-2.47c-0.539,0-1.036,0.155-1.471,0.407c-0.555-1.643-2.104-2.827-3.934-2.827
	c-2.294,0-4.152,1.859-4.152,4.154c0,0.543,0.107,1.061,0.296,1.536c-0.007,0-0.013-0.003-0.021-0.003
	c-1.895,0-3.431,1.534-3.431,3.428c0,1.798,1.391,3.257,3.156,3.399v0.023h0.213c0.021,0,0.041,0.006,0.063,0.006
	s0.041-0.006,0.062-0.006h12.5c0.107,0.008,0.215,0.016,0.325,0.016c0.109,0,0.217-0.008,0.322-0.016h0.026v-0.002
	C41.845,21.275,43.39,19.622,43.39,17.605z"/>
<path display="none" fill="#A3D4F7" d="M42.39,24.995c0-3.785-3.066-6.855-6.853-6.855c-0.431,0-0.849,0.044-1.259,0.121
	c-0.403-2.48-2.539-4.378-5.133-4.378c-0.955,0-1.836,0.274-2.607,0.722c-0.982-2.912-3.729-5.012-6.974-5.012
	c-4.066,0-7.363,3.297-7.363,7.363c0,0.964,0.19,1.881,0.526,2.724c-0.013,0-0.024-0.004-0.037-0.004
	c-3.356,0-6.078,2.72-6.078,6.076c0,3.188,2.465,5.774,5.589,6.028v0.039h0.378c0.038,0,0.073,0.01,0.111,0.01s0.073-0.01,0.11-0.01
	h22.161c0.19,0.016,0.382,0.027,0.576,0.027s0.385-0.013,0.573-0.027h0.045v-0.004C39.649,31.503,42.39,28.571,42.39,24.995z"/>
<g display="none">
	<path display="inline" fill="#00AAFF" d="M13.32,33.298c0-2.137,2.128-4.329,2.128-4.329s2.129,2.137,2.129,4.329
		c0,1.176-0.953,2.129-2.129,2.129S13.32,34.474,13.32,33.298z"/>
	<path display="inline" fill="#00AAFF" d="M19.789,38.954c0-2.137,2.128-4.329,2.128-4.329s2.129,2.137,2.129,4.329
		c0,1.176-0.953,2.129-2.129,2.129S19.789,40.13,19.789,38.954z"/>
	<path display="inline" fill="#00AAFF" d="M27.321,35.726c0-2.137,2.128-4.329,2.128-4.329s2.129,2.137,2.129,4.329
		c0,1.176-0.953,2.129-2.129,2.129S27.321,36.901,27.321,35.726z"/>
</g>
<g display="none">
	
		<polygon display="inline" fill="#FFE600" stroke="#FFE600" stroke-width="0.5" stroke-linecap="round" stroke-linejoin="round" stroke-miterlimit="10" points="
		28.192,39.521 30.381,39.878 26.892,44.689 27.443,41.312 25.503,40.995 28.809,36.055 	"/>
	
		<polygon display="inline" fill="#FFE600" stroke="#FFE600" stroke-width="0.5" stroke-linecap="round" stroke-linejoin="round" stroke-miterlimit="10" points="
		17.054,33.497 19.243,33.854 15.753,38.666 16.305,35.288 14.365,34.972 17.671,30.031 	"/>
</g>
<g display="none">
	<g display="inline">
		
			<line fill="none" stroke="#80C7EA" stroke-width="0.25" stroke-linecap="round" stroke-linejoin="round" stroke-miterlimit="10" x1="16.833" y1="36.726" x2="16.833" y2="31.129"/>
		<g>
			
				<line fill="none" stroke="#80C7EA" stroke-width="0.25" stroke-linecap="round" stroke-linejoin="round" stroke-miterlimit="10" x1="16.277" y1="31.248" x2="16.813" y2="31.785"/>
			
				<line fill="none" stroke="#80C7EA" stroke-width="0.25" stroke-linecap="round" stroke-linejoin="round" stroke-miterlimit="10" x1="17.38" y1="31.248" x2="16.843" y2="31.785"/>
			<g>
				
					<line fill="none" stroke="#80C7EA" stroke-width="0.25" stroke-linecap="round" stroke-linejoin="round" stroke-miterlimit="10" x1="16.277" y1="31.916" x2="16.813" y2="32.453"/>
				
					<line fill="none" stroke="#80C7EA" stroke-width="0.25" stroke-linecap="round" stroke-linejoin="round" stroke-miterlimit="10" x1="17.38" y1="31.916" x2="16.843" y2="32.453"/>
			</g>
		</g>
		<g>
			
				<line fill="none" stroke="#80C7EA" stroke-width="0.25" stroke-linecap="round" stroke-linejoin="round" stroke-miterlimit="10" x1="17.39" y1="36.56" x2="16.853" y2="36.022"/>
			
				<line fill="none" stroke="#80C7EA" stroke-width="0.25" stroke-linecap="round" stroke-linejoin="round" stroke-miterlimit="10" x1="16.286" y1="36.56" x2="16.822" y2="36.022"/>
			<g>
				
					<line fill="none" stroke="#80C7EA" stroke-width="0.25" stroke-linecap="round" stroke-linejoin="round" stroke-miterlimit="10" x1="17.39" y1="35.892" x2="16.853" y2="35.354"/>
				
					<line fill="none" stroke="#80C7EA" stroke-width="0.25" stroke-linecap="round" stroke-linejoin="round" stroke-miterlimit="10" x1="16.286" y1="35.892" x2="16.822" y2="35.354"/>
			</g>
		</g>
	</g>
	<g display="inline">
		
			<line fill="none" stroke="#80C7EA" stroke-width="0.25" stroke-linecap="round" stroke-linejoin="round" stroke-miterlimit="10" x1="18.812" y1="35.905" x2="14.854" y2="31.949"/>
		<g>
			
				<line fill="none" stroke="#80C7EA" stroke-width="0.25" stroke-linecap="round" stroke-linejoin="round" stroke-miterlimit="10" x1="14.545" y1="32.427" x2="15.305" y2="32.427"/>
			
				<line fill="none" stroke="#80C7EA" stroke-width="0.25" stroke-linecap="round" stroke-linejoin="round" stroke-miterlimit="10" x1="15.326" y1="31.646" x2="15.326" y2="32.405"/>
			<g>
				
					<line fill="none" stroke="#80C7EA" stroke-width="0.25" stroke-linecap="round" stroke-linejoin="round" stroke-miterlimit="10" x1="15.018" y1="32.898" x2="15.777" y2="32.898"/>
				
					<line fill="none" stroke="#80C7EA" stroke-width="0.25" stroke-linecap="round" stroke-linejoin="round" stroke-miterlimit="10" x1="15.798" y1="32.118" x2="15.798" y2="32.878"/>
			</g>
		</g>
		<g>
			
				<line fill="none" stroke="#80C7EA" stroke-width="0.25" stroke-linecap="round" stroke-linejoin="round" stroke-miterlimit="10" x1="19.088" y1="35.396" x2="18.329" y2="35.396"/>
			
				<line fill="none" stroke="#80C7EA" stroke-width="0.25" stroke-linecap="round" stroke-linejoin="round" stroke-miterlimit="10" x1="18.308" y1="36.176" x2="18.308" y2="35.416"/>
			<g>
				
					<line fill="none" stroke="#80C7EA" stroke-width="0.25" stroke-linecap="round" stroke-linejoin="round" stroke-miterlimit="10" x1="18.616" y1="34.923" x2="17.857" y2="34.923"/>
				
					<line fill="none" stroke="#80C7EA" stroke-width="0.25" stroke-linecap="round" stroke-linejoin="round" stroke-miterlimit="10" x1="17.835" y1="35.704" x2="17.835" y2="34.944"/>
			</g>
		</g>
	</g>
	<g display="inline">
		
			<line fill="none" stroke="#80C7EA" stroke-width="0.25" stroke-linecap="round" stroke-linejoin="round" stroke-miterlimit="10" x1="19.631" y1="33.928" x2="14.035" y2="33.928"/>
		<g>
			
				<line fill="none" stroke="#80C7EA" stroke-width="0.25" stroke-linecap="round" stroke-linejoin="round" stroke-miterlimit="10" x1="14.154" y1="34.484" x2="14.69" y2="33.946"/>
			
				<line fill="none" stroke="#80C7EA" stroke-width="0.25" stroke-linecap="round" stroke-linejoin="round" stroke-miterlimit="10" x1="14.154" y1="33.38" x2="14.69" y2="33.917"/>
			<g>
				
					<line fill="none" stroke="#80C7EA" stroke-width="0.25" stroke-linecap="round" stroke-linejoin="round" stroke-miterlimit="10" x1="14.822" y1="34.484" x2="15.358" y2="33.946"/>
				
					<line fill="none" stroke="#80C7EA" stroke-width="0.25" stroke-linecap="round" stroke-linejoin="round" stroke-miterlimit="10" x1="14.822" y1="33.38" x2="15.358" y2="33.917"/>
			</g>
		</g>
		<g>
			
				<line fill="none" stroke="#80C7EA" stroke-width="0.25" stroke-linecap="round" stroke-linejoin="round" stroke-miterlimit="10" x1="19.465" y1="33.37" x2="18.929" y2="33.907"/>
			
				<line fill="none" stroke="#80C7EA" stroke-width="0.25" stroke-linecap="round" stroke-linejoin="round" stroke-miterlimit="10" x1="19.465" y1="34.475" x2="18.928" y2="33.938"/>
			<g>
				
					<line fill="none" stroke="#80C7EA" stroke-width="0.25" stroke-linecap="round" stroke-linejoin="round" stroke-miterlimit="10" x1="18.797" y1="33.37" x2="18.261" y2="33.907"/>
				
					<line fill="none" stroke="#80C7EA" stroke-width="0.25" stroke-linecap="round" stroke-linejoin="round" stroke-miterlimit="10" x1="18.797" y1="34.475" x2="18.261" y2="33.938"/>
			</g>
		</g>
	</g>
	<g display="inline">
		
			<line fill="none" stroke="#80C7EA" stroke-width="0.25" stroke-linecap="round" stroke-linejoin="round" stroke-miterlimit="10" x1="18.812" y1="31.949" x2="14.854" y2="35.905"/>
		<g>
			
				<line fill="none" stroke="#80C7EA" stroke-width="0.25" stroke-linecap="round" stroke-linejoin="round" stroke-miterlimit="10" x1="15.332" y1="36.215" x2="15.332" y2="35.456"/>
			
				<line fill="none" stroke="#80C7EA" stroke-width="0.25" stroke-linecap="round" stroke-linejoin="round" stroke-miterlimit="10" x1="14.552" y1="35.435" x2="15.311" y2="35.435"/>
			<g>
				
					<line fill="none" stroke="#80C7EA" stroke-width="0.25" stroke-linecap="round" stroke-linejoin="round" stroke-miterlimit="10" x1="15.805" y1="35.743" x2="15.805" y2="34.984"/>
				
					<line fill="none" stroke="#80C7EA" stroke-width="0.25" stroke-linecap="round" stroke-linejoin="round" stroke-miterlimit="10" x1="15.024" y1="34.963" x2="15.783" y2="34.963"/>
			</g>
		</g>
		<g>
			
				<line fill="none" stroke="#80C7EA" stroke-width="0.25" stroke-linecap="round" stroke-linejoin="round" stroke-miterlimit="10" x1="18.301" y1="31.673" x2="18.301" y2="32.432"/>
			
				<line fill="none" stroke="#80C7EA" stroke-width="0.25" stroke-linecap="round" stroke-linejoin="round" stroke-miterlimit="10" x1="19.081" y1="32.453" x2="18.322" y2="32.453"/>
			<g>
				
					<line fill="none" stroke="#80C7EA" stroke-width="0.25" stroke-linecap="round" stroke-linejoin="round" stroke-miterlimit="10" x1="17.829" y1="32.145" x2="17.829" y2="32.903"/>
				
					<line fill="none" stroke="#80C7EA" stroke-width="0.25" stroke-linecap="round" stroke-linejoin="round" stroke-miterlimit="10" x1="18.608" y1="32.925" x2="17.85" y2="32.925"/>
			</g>
		</g>
	</g>
</g>
<g display="none">
	<g display="inline">
		
			<line fill="none" stroke="#80C7EA" stroke-width="0.25" stroke-linecap="round" stroke-linejoin="round" stroke-miterlimit="10" x1="22.937" y1="44.955" x2="22.937" y2="39.358"/>
		<g>
			
				<line fill="none" stroke="#80C7EA" stroke-width="0.25" stroke-linecap="round" stroke-linejoin="round" stroke-miterlimit="10" x1="22.38" y1="39.478" x2="22.917" y2="40.015"/>
			
				<line fill="none" stroke="#80C7EA" stroke-width="0.25" stroke-linecap="round" stroke-linejoin="round" stroke-miterlimit="10" x1="23.483" y1="39.478" x2="22.946" y2="40.015"/>
			<g>
				
					<line fill="none" stroke="#80C7EA" stroke-width="0.25" stroke-linecap="round" stroke-linejoin="round" stroke-miterlimit="10" x1="22.38" y1="40.146" x2="22.917" y2="40.683"/>
				
					<line fill="none" stroke="#80C7EA" stroke-width="0.25" stroke-linecap="round" stroke-linejoin="round" stroke-miterlimit="10" x1="23.483" y1="40.146" x2="22.946" y2="40.683"/>
			</g>
		</g>
		<g>
			
				<line fill="none" stroke="#80C7EA" stroke-width="0.25" stroke-linecap="round" stroke-linejoin="round" stroke-miterlimit="10" x1="23.493" y1="44.789" x2="22.956" y2="44.252"/>
			
				<line fill="none" stroke="#80C7EA" stroke-width="0.25" stroke-linecap="round" stroke-linejoin="round" stroke-miterlimit="10" x1="22.39" y1="44.789" x2="22.926" y2="44.252"/>
			<g>
				
					<line fill="none" stroke="#80C7EA" stroke-width="0.25" stroke-linecap="round" stroke-linejoin="round" stroke-miterlimit="10" x1="23.493" y1="44.121" x2="22.956" y2="43.584"/>
				
					<line fill="none" stroke="#80C7EA" stroke-width="0.25" stroke-linecap="round" stroke-linejoin="round" stroke-miterlimit="10" x1="22.39" y1="44.121" x2="22.926" y2="43.584"/>
			</g>
		</g>
	</g>
	<g display="inline">
		
			<line fill="none" stroke="#80C7EA" stroke-width="0.25" stroke-linecap="round" stroke-linejoin="round" stroke-miterlimit="10" x1="24.915" y1="44.135" x2="20.958" y2="40.179"/>
		<g>
			
				<line fill="none" stroke="#80C7EA" stroke-width="0.25" stroke-linecap="round" stroke-linejoin="round" stroke-miterlimit="10" x1="20.649" y1="40.656" x2="21.408" y2="40.656"/>
			
				<line fill="none" stroke="#80C7EA" stroke-width="0.25" stroke-linecap="round" stroke-linejoin="round" stroke-miterlimit="10" x1="21.429" y1="39.876" x2="21.429" y2="40.635"/>
			<g>
				
					<line fill="none" stroke="#80C7EA" stroke-width="0.25" stroke-linecap="round" stroke-linejoin="round" stroke-miterlimit="10" x1="21.121" y1="41.128" x2="21.88" y2="41.128"/>
				
					<line fill="none" stroke="#80C7EA" stroke-width="0.25" stroke-linecap="round" stroke-linejoin="round" stroke-miterlimit="10" x1="21.901" y1="40.348" x2="21.901" y2="41.107"/>
			</g>
		</g>
		<g>
			
				<line fill="none" stroke="#80C7EA" stroke-width="0.25" stroke-linecap="round" stroke-linejoin="round" stroke-miterlimit="10" x1="25.191" y1="43.625" x2="24.433" y2="43.625"/>
			
				<line fill="none" stroke="#80C7EA" stroke-width="0.25" stroke-linecap="round" stroke-linejoin="round" stroke-miterlimit="10" x1="24.411" y1="44.405" x2="24.411" y2="43.646"/>
			<g>
				
					<line fill="none" stroke="#80C7EA" stroke-width="0.25" stroke-linecap="round" stroke-linejoin="round" stroke-miterlimit="10" x1="24.72" y1="43.152" x2="23.96" y2="43.152"/>
				
					<line fill="none" stroke="#80C7EA" stroke-width="0.25" stroke-linecap="round" stroke-linejoin="round" stroke-miterlimit="10" x1="23.938" y1="43.934" x2="23.938" y2="43.174"/>
			</g>
		</g>
	</g>
	<g display="inline">
		
			<line fill="none" stroke="#80C7EA" stroke-width="0.25" stroke-linecap="round" stroke-linejoin="round" stroke-miterlimit="10" x1="25.735" y1="42.157" x2="20.138" y2="42.157"/>
		<g>
			
				<line fill="none" stroke="#80C7EA" stroke-width="0.25" stroke-linecap="round" stroke-linejoin="round" stroke-miterlimit="10" x1="20.257" y1="42.714" x2="20.794" y2="42.176"/>
			
				<line fill="none" stroke="#80C7EA" stroke-width="0.25" stroke-linecap="round" stroke-linejoin="round" stroke-miterlimit="10" x1="20.257" y1="41.609" x2="20.794" y2="42.146"/>
			<g>
				
					<line fill="none" stroke="#80C7EA" stroke-width="0.25" stroke-linecap="round" stroke-linejoin="round" stroke-miterlimit="10" x1="20.925" y1="42.714" x2="21.462" y2="42.176"/>
				
					<line fill="none" stroke="#80C7EA" stroke-width="0.25" stroke-linecap="round" stroke-linejoin="round" stroke-miterlimit="10" x1="20.925" y1="41.609" x2="21.462" y2="42.146"/>
			</g>
		</g>
		<g>
			
				<line fill="none" stroke="#80C7EA" stroke-width="0.25" stroke-linecap="round" stroke-linejoin="round" stroke-miterlimit="10" x1="25.569" y1="41.6" x2="25.032" y2="42.137"/>
			
				<line fill="none" stroke="#80C7EA" stroke-width="0.25" stroke-linecap="round" stroke-linejoin="round" stroke-miterlimit="10" x1="25.569" y1="42.704" x2="25.031" y2="42.167"/>
			<g>
				
					<line fill="none" stroke="#80C7EA" stroke-width="0.25" stroke-linecap="round" stroke-linejoin="round" stroke-miterlimit="10" x1="24.901" y1="41.6" x2="24.364" y2="42.137"/>
				
					<line fill="none" stroke="#80C7EA" stroke-width="0.25" stroke-linecap="round" stroke-linejoin="round" stroke-miterlimit="10" x1="24.901" y1="42.704" x2="24.364" y2="42.167"/>
			</g>
		</g>
	</g>
	<g display="inline">
		
			<line fill="none" stroke="#80C7EA" stroke-width="0.25" stroke-linecap="round" stroke-linejoin="round" stroke-miterlimit="10" x1="24.915" y1="40.179" x2="20.958" y2="44.135"/>
		<g>
			
				<line fill="none" stroke="#80C7EA" stroke-width="0.25" stroke-linecap="round" stroke-linejoin="round" stroke-miterlimit="10" x1="21.435" y1="44.444" x2="21.435" y2="43.686"/>
			
				<line fill="none" stroke="#80C7EA" stroke-width="0.25" stroke-linecap="round" stroke-linejoin="round" stroke-miterlimit="10" x1="20.655" y1="43.664" x2="21.414" y2="43.664"/>
			<g>
				
					<line fill="none" stroke="#80C7EA" stroke-width="0.25" stroke-linecap="round" stroke-linejoin="round" stroke-miterlimit="10" x1="21.908" y1="43.973" x2="21.908" y2="43.214"/>
				
					<line fill="none" stroke="#80C7EA" stroke-width="0.25" stroke-linecap="round" stroke-linejoin="round" stroke-miterlimit="10" x1="21.127" y1="43.192" x2="21.887" y2="43.192"/>
			</g>
		</g>
		<g>
			
				<line fill="none" stroke="#80C7EA" stroke-width="0.25" stroke-linecap="round" stroke-linejoin="round" stroke-miterlimit="10" x1="24.404" y1="39.902" x2="24.404" y2="40.661"/>
			
				<line fill="none" stroke="#80C7EA" stroke-width="0.25" stroke-linecap="round" stroke-linejoin="round" stroke-miterlimit="10" x1="25.185" y1="40.683" x2="24.425" y2="40.683"/>
			<g>
				
					<line fill="none" stroke="#80C7EA" stroke-width="0.25" stroke-linecap="round" stroke-linejoin="round" stroke-miterlimit="10" x1="23.933" y1="40.374" x2="23.933" y2="41.133"/>
				
					<line fill="none" stroke="#80C7EA" stroke-width="0.25" stroke-linecap="round" stroke-linejoin="round" stroke-miterlimit="10" x1="24.712" y1="41.154" x2="23.953" y2="41.154"/>
			</g>
		</g>
	</g>
</g>
<g>
	<g>
		
			<line fill="none" stroke="#80C7EA" stroke-width="2" stroke-linecap="round" stroke-linejoin="round" stroke-miterlimit="10" x1="25" y1="41.992" x2="25" y2="8.008"/>
		<g>
			
				<line fill="none" stroke="#80C7EA" stroke-width="2" stroke-linecap="round" stroke-linejoin="round" stroke-miterlimit="10" x1="21.621" y1="8.731" x2="24.881" y2="11.993"/>
			
				<line fill="none" stroke="#80C7EA" stroke-width="2" stroke-linecap="round" stroke-linejoin="round" stroke-miterlimit="10" x1="28.32" y1="8.731" x2="25.06" y2="11.993"/>
			<g>
				
					<line fill="none" stroke="#80C7EA" stroke-width="2" stroke-linecap="round" stroke-linejoin="round" stroke-miterlimit="10" x1="21.621" y1="12.787" x2="24.881" y2="16.048"/>
				
					<line fill="none" stroke="#80C7EA" stroke-width="2" stroke-linecap="round" stroke-linejoin="round" stroke-miterlimit="10" x1="28.32" y1="12.787" x2="25.06" y2="16.048"/>
			</g>
		</g>
		<g>
			
				<line fill="none" stroke="#80C7EA" stroke-width="2" stroke-linecap="round" stroke-linejoin="round" stroke-miterlimit="10" x1="28.381" y1="40.984" x2="25.119" y2="37.721"/>
			
				<line fill="none" stroke="#80C7EA" stroke-width="2" stroke-linecap="round" stroke-linejoin="round" stroke-miterlimit="10" x1="21.679" y1="40.984" x2="24.935" y2="37.721"/>
			<g>
				
					<line fill="none" stroke="#80C7EA" stroke-width="2" stroke-linecap="round" stroke-linejoin="round" stroke-miterlimit="10" x1="28.381" y1="36.927" x2="25.119" y2="33.667"/>
				
					<line fill="none" stroke="#80C7EA" stroke-width="2" stroke-linecap="round" stroke-linejoin="round" stroke-miterlimit="10" x1="21.679" y1="36.927" x2="24.935" y2="33.667"/>
			</g>
		</g>
	</g>
	<g>
		
			<line fill="none" stroke="#80C7EA" stroke-width="2" stroke-linecap="round" stroke-linejoin="round" stroke-miterlimit="10" x1="37.015" y1="37.01" x2="12.986" y2="12.989"/>
		<g>
			
				<line fill="none" stroke="#80C7EA" stroke-width="2" stroke-linecap="round" stroke-linejoin="round" stroke-miterlimit="10" x1="11.113" y1="15.889" x2="15.72" y2="15.889"/>
			
				<line fill="none" stroke="#80C7EA" stroke-width="2" stroke-linecap="round" stroke-linejoin="round" stroke-miterlimit="10" x1="15.845" y1="11.151" x2="15.845" y2="15.758"/>
			<g>
				
					<line fill="none" stroke="#80C7EA" stroke-width="2" stroke-linecap="round" stroke-linejoin="round" stroke-miterlimit="10" x1="13.978" y1="18.753" x2="18.585" y2="18.753"/>
				
					<line fill="none" stroke="#80C7EA" stroke-width="2" stroke-linecap="round" stroke-linejoin="round" stroke-miterlimit="10" x1="18.715" y1="14.014" x2="18.715" y2="18.627"/>
			</g>
		</g>
		<g>
			
				<line fill="none" stroke="#80C7EA" stroke-width="2" stroke-linecap="round" stroke-linejoin="round" stroke-miterlimit="10" x1="38.692" y1="33.914" x2="34.083" y2="33.914"/>
			
				<line fill="none" stroke="#80C7EA" stroke-width="2" stroke-linecap="round" stroke-linejoin="round" stroke-miterlimit="10" x1="33.953" y1="38.654" x2="33.953" y2="34.039"/>
			<g>
				
					<line fill="none" stroke="#80C7EA" stroke-width="2" stroke-linecap="round" stroke-linejoin="round" stroke-miterlimit="10" x1="35.828" y1="31.045" x2="31.215" y2="31.045"/>
				
					<line fill="none" stroke="#80C7EA" stroke-width="2" stroke-linecap="round" stroke-linejoin="round" stroke-miterlimit="10" x1="31.085" y1="35.788" x2="31.085" y2="31.176"/>
			</g>
		</g>
	</g>
	<g>
		
			<line fill="none" stroke="#80C7EA" stroke-width="2" stroke-linecap="round" stroke-linejoin="round" stroke-miterlimit="10" x1="41.994" y1="25.002" x2="8.005" y2="25.002"/>
		<g>
			
				<line fill="none" stroke="#80C7EA" stroke-width="2" stroke-linecap="round" stroke-linejoin="round" stroke-miterlimit="10" x1="8.729" y1="28.383" x2="11.99" y2="25.115"/>
			
				<line fill="none" stroke="#80C7EA" stroke-width="2" stroke-linecap="round" stroke-linejoin="round" stroke-miterlimit="10" x1="8.729" y1="21.676" x2="11.99" y2="24.938"/>
			<g>
				
					<line fill="none" stroke="#80C7EA" stroke-width="2" stroke-linecap="round" stroke-linejoin="round" stroke-miterlimit="10" x1="12.785" y1="28.383" x2="16.046" y2="25.115"/>
				
					<line fill="none" stroke="#80C7EA" stroke-width="2" stroke-linecap="round" stroke-linejoin="round" stroke-miterlimit="10" x1="12.785" y1="21.676" x2="16.046" y2="24.938"/>
			</g>
		</g>
		<g>
			
				<line fill="none" stroke="#80C7EA" stroke-width="2" stroke-linecap="round" stroke-linejoin="round" stroke-miterlimit="10" x1="40.986" y1="21.616" x2="37.725" y2="24.878"/>
			
				<line fill="none" stroke="#80C7EA" stroke-width="2" stroke-linecap="round" stroke-linejoin="round" stroke-miterlimit="10" x1="40.986" y1="28.322" x2="37.719" y2="25.061"/>
			<g>
				
					<line fill="none" stroke="#80C7EA" stroke-width="2" stroke-linecap="round" stroke-linejoin="round" stroke-miterlimit="10" x1="36.931" y1="21.616" x2="33.67" y2="24.878"/>
				
					<line fill="none" stroke="#80C7EA" stroke-width="2" stroke-linecap="round" stroke-linejoin="round" stroke-miterlimit="10" x1="36.931" y1="28.322" x2="33.67" y2="25.061"/>
			</g>
		</g>
	</g>
	<g>
		
			<line fill="none" stroke="#80C7EA" stroke-width="2" stroke-linecap="round" stroke-linejoin="round" stroke-miterlimit="10" x1="37.015" y1="12.989" x2="12.986" y2="37.01"/>
		<g>
			
				<line fill="none" stroke="#80C7EA" stroke-width="2" stroke-linecap="round" stroke-linejoin="round" stroke-miterlimit="10" x1="15.88" y1="38.891" x2="15.88" y2="34.282"/>
			
				<line fill="none" stroke="#80C7EA" stroke-width="2" stroke-linecap="round" stroke-linejoin="round" stroke-miterlimit="10" x1="11.148" y1="34.151" x2="15.755" y2="34.151"/>
			<g>
				
					<line fill="none" stroke="#80C7EA" stroke-width="2" stroke-linecap="round" stroke-linejoin="round" stroke-miterlimit="10" x1="18.757" y1="36.024" x2="18.757" y2="31.417"/>
				
					<line fill="none" stroke="#80C7EA" stroke-width="2" stroke-linecap="round" stroke-linejoin="round" stroke-miterlimit="10" x1="14.019" y1="31.288" x2="18.625" y2="31.288"/>
			</g>
		</g>
		<g>
			
				<line fill="none" stroke="#80C7EA" stroke-width="2" stroke-linecap="round" stroke-linejoin="round" stroke-miterlimit="10" x1="33.911" y1="11.311" x2="33.911" y2="15.918"/>
			
				<line fill="none" stroke="#80C7EA" stroke-width="2" stroke-linecap="round" stroke-linejoin="round" stroke-miterlimit="10" x1="38.649" y1="16.048" x2="34.037" y2="16.048"/>
			<g>
				
					<line fill="none" stroke="#80C7EA" stroke-width="2" stroke-linecap="round" stroke-linejoin="round" stroke-miterlimit="10" x1="31.047" y1="14.174" x2="31.047" y2="18.783"/>
				
					<line fill="none" stroke="#80C7EA" stroke-width="2" stroke-linecap="round" stroke-linejoin="round" stroke-miterlimit="10" x1="35.78" y1="18.913" x2="31.173" y2="18.913"/>
			</g>
		</g>
	</g>
</g>
<g display="none">
	<g display="inline">
		
			<line fill="none" stroke="#80C7EA" stroke-width="0.15" stroke-linecap="round" stroke-linejoin="round" stroke-miterlimit="10" x1="23.941" y1="34.648" x2="23.941" y2="31.423"/>
		<g>
			
				<line fill="none" stroke="#80C7EA" stroke-width="0.15" stroke-linecap="round" stroke-linejoin="round" stroke-miterlimit="10" x1="23.621" y1="31.491" x2="23.93" y2="31.801"/>
			
				<line fill="none" stroke="#80C7EA" stroke-width="0.15" stroke-linecap="round" stroke-linejoin="round" stroke-miterlimit="10" x1="24.257" y1="31.491" x2="23.947" y2="31.801"/>
			<g>
				
					<line fill="none" stroke="#80C7EA" stroke-width="0.15" stroke-linecap="round" stroke-linejoin="round" stroke-miterlimit="10" x1="23.621" y1="31.876" x2="23.93" y2="32.186"/>
				
					<line fill="none" stroke="#80C7EA" stroke-width="0.15" stroke-linecap="round" stroke-linejoin="round" stroke-miterlimit="10" x1="24.257" y1="31.876" x2="23.947" y2="32.186"/>
			</g>
		</g>
		<g>
			
				<line fill="none" stroke="#80C7EA" stroke-width="0.15" stroke-linecap="round" stroke-linejoin="round" stroke-miterlimit="10" x1="24.262" y1="34.553" x2="23.953" y2="34.243"/>
			
				<line fill="none" stroke="#80C7EA" stroke-width="0.15" stroke-linecap="round" stroke-linejoin="round" stroke-miterlimit="10" x1="23.626" y1="34.553" x2="23.935" y2="34.243"/>
			<g>
				
					<line fill="none" stroke="#80C7EA" stroke-width="0.15" stroke-linecap="round" stroke-linejoin="round" stroke-miterlimit="10" x1="24.262" y1="34.168" x2="23.953" y2="33.858"/>
				
					<line fill="none" stroke="#80C7EA" stroke-width="0.15" stroke-linecap="round" stroke-linejoin="round" stroke-miterlimit="10" x1="23.626" y1="34.168" x2="23.935" y2="33.858"/>
			</g>
		</g>
	</g>
	<g display="inline">
		
			<line fill="none" stroke="#80C7EA" stroke-width="0.15" stroke-linecap="round" stroke-linejoin="round" stroke-miterlimit="10" x1="25.082" y1="34.176" x2="22.801" y2="31.896"/>
		<g>
			
				<line fill="none" stroke="#80C7EA" stroke-width="0.15" stroke-linecap="round" stroke-linejoin="round" stroke-miterlimit="10" x1="22.623" y1="32.171" x2="23.061" y2="32.171"/>
			
				<line fill="none" stroke="#80C7EA" stroke-width="0.15" stroke-linecap="round" stroke-linejoin="round" stroke-miterlimit="10" x1="23.073" y1="31.721" x2="23.073" y2="32.158"/>
			<g>
				
					<line fill="none" stroke="#80C7EA" stroke-width="0.15" stroke-linecap="round" stroke-linejoin="round" stroke-miterlimit="10" x1="22.895" y1="32.442" x2="23.333" y2="32.442"/>
				
					<line fill="none" stroke="#80C7EA" stroke-width="0.15" stroke-linecap="round" stroke-linejoin="round" stroke-miterlimit="10" x1="23.345" y1="31.993" x2="23.345" y2="32.431"/>
			</g>
		</g>
		<g>
			
				<line fill="none" stroke="#80C7EA" stroke-width="0.15" stroke-linecap="round" stroke-linejoin="round" stroke-miterlimit="10" x1="25.241" y1="33.882" x2="24.804" y2="33.882"/>
			
				<line fill="none" stroke="#80C7EA" stroke-width="0.15" stroke-linecap="round" stroke-linejoin="round" stroke-miterlimit="10" x1="24.792" y1="34.332" x2="24.792" y2="33.894"/>
			<g>
				
					<line fill="none" stroke="#80C7EA" stroke-width="0.15" stroke-linecap="round" stroke-linejoin="round" stroke-miterlimit="10" x1="24.969" y1="33.609" x2="24.532" y2="33.609"/>
				
					<line fill="none" stroke="#80C7EA" stroke-width="0.15" stroke-linecap="round" stroke-linejoin="round" stroke-miterlimit="10" x1="24.519" y1="34.06" x2="24.519" y2="33.622"/>
			</g>
		</g>
	</g>
	<g display="inline">
		
			<line fill="none" stroke="#80C7EA" stroke-width="0.15" stroke-linecap="round" stroke-linejoin="round" stroke-miterlimit="10" x1="25.555" y1="33.036" x2="22.329" y2="33.036"/>
		<g>
			
				<line fill="none" stroke="#80C7EA" stroke-width="0.15" stroke-linecap="round" stroke-linejoin="round" stroke-miterlimit="10" x1="22.397" y1="33.356" x2="22.707" y2="33.047"/>
			
				<line fill="none" stroke="#80C7EA" stroke-width="0.15" stroke-linecap="round" stroke-linejoin="round" stroke-miterlimit="10" x1="22.397" y1="32.72" x2="22.707" y2="33.029"/>
			<g>
				
					<line fill="none" stroke="#80C7EA" stroke-width="0.15" stroke-linecap="round" stroke-linejoin="round" stroke-miterlimit="10" x1="22.782" y1="33.356" x2="23.091" y2="33.047"/>
				
					<line fill="none" stroke="#80C7EA" stroke-width="0.15" stroke-linecap="round" stroke-linejoin="round" stroke-miterlimit="10" x1="22.782" y1="32.72" x2="23.091" y2="33.029"/>
			</g>
		</g>
		<g>
			
				<line fill="none" stroke="#80C7EA" stroke-width="0.15" stroke-linecap="round" stroke-linejoin="round" stroke-miterlimit="10" x1="25.458" y1="32.715" x2="25.15" y2="33.024"/>
			
				<line fill="none" stroke="#80C7EA" stroke-width="0.15" stroke-linecap="round" stroke-linejoin="round" stroke-miterlimit="10" x1="25.458" y1="33.352" x2="25.148" y2="33.042"/>
			<g>
				
					<line fill="none" stroke="#80C7EA" stroke-width="0.15" stroke-linecap="round" stroke-linejoin="round" stroke-miterlimit="10" x1="25.074" y1="32.715" x2="24.765" y2="33.024"/>
				
					<line fill="none" stroke="#80C7EA" stroke-width="0.15" stroke-linecap="round" stroke-linejoin="round" stroke-miterlimit="10" x1="25.074" y1="33.352" x2="24.765" y2="33.042"/>
			</g>
		</g>
	</g>
	<g display="inline">
		
			<line fill="none" stroke="#80C7EA" stroke-width="0.15" stroke-linecap="round" stroke-linejoin="round" stroke-miterlimit="10" x1="25.082" y1="31.896" x2="22.801" y2="34.176"/>
		<g>
			
				<line fill="none" stroke="#80C7EA" stroke-width="0.15" stroke-linecap="round" stroke-linejoin="round" stroke-miterlimit="10" x1="23.076" y1="34.354" x2="23.076" y2="33.917"/>
			
				<line fill="none" stroke="#80C7EA" stroke-width="0.15" stroke-linecap="round" stroke-linejoin="round" stroke-miterlimit="10" x1="22.626" y1="33.904" x2="23.064" y2="33.904"/>
			<g>
				
					<line fill="none" stroke="#80C7EA" stroke-width="0.15" stroke-linecap="round" stroke-linejoin="round" stroke-miterlimit="10" x1="23.349" y1="34.082" x2="23.349" y2="33.645"/>
				
					<line fill="none" stroke="#80C7EA" stroke-width="0.15" stroke-linecap="round" stroke-linejoin="round" stroke-miterlimit="10" x1="22.898" y1="33.633" x2="23.336" y2="33.633"/>
			</g>
		</g>
		<g>
			
				<line fill="none" stroke="#80C7EA" stroke-width="0.15" stroke-linecap="round" stroke-linejoin="round" stroke-miterlimit="10" x1="24.787" y1="31.736" x2="24.787" y2="32.174"/>
			
				<line fill="none" stroke="#80C7EA" stroke-width="0.15" stroke-linecap="round" stroke-linejoin="round" stroke-miterlimit="10" x1="25.237" y1="32.186" x2="24.8" y2="32.186"/>
			<g>
				
					<line fill="none" stroke="#80C7EA" stroke-width="0.15" stroke-linecap="round" stroke-linejoin="round" stroke-miterlimit="10" x1="24.515" y1="32.008" x2="24.515" y2="32.445"/>
				
					<line fill="none" stroke="#80C7EA" stroke-width="0.15" stroke-linecap="round" stroke-linejoin="round" stroke-miterlimit="10" x1="24.965" y1="32.458" x2="24.527" y2="32.458"/>
			</g>
		</g>
	</g>
</g>
</svg>
