<?xml version="1.0" encoding="utf-8"?>
<!-- Generator: Adobe Illustrator 16.0.0, SVG Export Plug-In . SVG Version: 6.00 Build 0)  -->
<!DOCTYPE svg PUBLIC "-//W3C//DTD SVG 1.1//EN" "http://www.w3.org/Graphics/SVG/1.1/DTD/svg11.dtd">
<svg version="1.1" id="Layer_1" xmlns="http://www.w3.org/2000/svg" xmlns:xlink="http://www.w3.org/1999/xlink" x="0px" y="0px"
	 width="50px" height="50px" viewBox="0 0 50 50" enable-background="new 0 0 50 50" xml:space="preserve">
<circle display="none" fill="#FFCE00" cx="32.732" cy="16.063" r="9.656"/>
<g display="none">
	
		<line display="inline" fill="none" stroke="#FFCE00" stroke-width="3" stroke-linecap="round" stroke-miterlimit="10" x1="24.583" y1="11.813" x2="24.583" y2="5.375"/>
	
		<line display="inline" fill="none" stroke="#FFCE00" stroke-width="3" stroke-linecap="round" stroke-miterlimit="10" x1="15.379" y1="15.969" x2="10.829" y2="11.417"/>
	
		<line display="inline" fill="none" stroke="#FFCE00" stroke-width="3" stroke-linecap="round" stroke-miterlimit="10" x1="11.811" y1="25.417" x2="5.375" y2="25.416"/>
	
		<line display="inline" fill="none" stroke="#FFCE00" stroke-width="3" stroke-linecap="round" stroke-miterlimit="10" x1="15.969" y1="34.621" x2="11.417" y2="39.171"/>
	
		<line display="inline" fill="none" stroke="#FFCE00" stroke-width="3" stroke-linecap="round" stroke-miterlimit="10" x1="25.419" y1="38.188" x2="25.416" y2="44.625"/>
	
		<line display="inline" fill="none" stroke="#FFCE00" stroke-width="3" stroke-linecap="round" stroke-miterlimit="10" x1="34.622" y1="34.03" x2="39.172" y2="38.584"/>
	
		<line display="inline" fill="none" stroke="#FFCE00" stroke-width="3" stroke-linecap="round" stroke-miterlimit="10" x1="38.189" y1="24.582" x2="44.627" y2="24.585"/>
	
		<line display="inline" fill="none" stroke="#FFCE00" stroke-width="3" stroke-linecap="round" stroke-miterlimit="10" x1="34.031" y1="15.379" x2="38.586" y2="10.83"/>
</g>
<path display="none" fill="#065789" d="M43.39,17.605c0-2.136-1.729-3.867-3.864-3.867c-0.243,0-0.479,0.024-0.711,0.068
	c-0.227-1.399-1.432-2.47-2.895-2.47c-0.539,0-1.036,0.155-1.471,0.407c-0.555-1.643-2.104-2.827-3.934-2.827
	c-2.294,0-4.152,1.859-4.152,4.154c0,0.543,0.107,1.061,0.296,1.536c-0.007,0-0.013-0.003-0.021-0.003
	c-1.895,0-3.431,1.534-3.431,3.428c0,1.798,1.391,3.257,3.156,3.399v0.023h0.213c0.021,0,0.041,0.006,0.063,0.006
	s0.041-0.006,0.062-0.006h12.5c0.107,0.008,0.215,0.016,0.325,0.016c0.109,0,0.217-0.008,0.322-0.016h0.026v-0.002
	C41.845,21.275,43.39,19.622,43.39,17.605z"/>
<path display="none" fill="#A3D4F7" d="M42.39,24.995c0-3.785-3.066-6.855-6.853-6.855c-0.431,0-0.849,0.044-1.259,0.121
	c-0.403-2.48-2.539-4.378-5.133-4.378c-0.955,0-1.836,0.274-2.607,0.722c-0.982-2.912-3.729-5.012-6.974-5.012
	c-4.066,0-7.363,3.297-7.363,7.363c0,0.964,0.19,1.881,0.526,2.724c-0.013,0-0.024-0.004-0.037-0.004
	c-3.356,0-6.078,2.72-6.078,6.076c0,3.188,2.465,5.774,5.589,6.028v0.039h0.378c0.038,0,0.073,0.01,0.111,0.01s0.073-0.01,0.11-0.01
	h22.161c0.19,0.016,0.382,0.027,0.576,0.027s0.385-0.013,0.573-0.027h0.045v-0.004C39.649,31.503,42.39,28.571,42.39,24.995z"/>
<g display="none">
	<path display="inline" fill="#00AAFF" d="M13.32,33.298c0-2.137,2.128-4.329,2.128-4.329s2.129,2.137,2.129,4.329
		c0,1.176-0.953,2.129-2.129,2.129S13.32,34.474,13.32,33.298z"/>
	<path display="inline" fill="#00AAFF" d="M19.789,38.954c0-2.137,2.128-4.329,2.128-4.329s2.129,2.137,2.129,4.329
		c0,1.176-0.953,2.129-2.129,2.129S19.789,40.13,19.789,38.954z"/>
	<path display="inline" fill="#00AAFF" d="M27.321,35.726c0-2.137,2.128-4.329,2.128-4.329s2.129,2.137,2.129,4.329
		c0,1.176-0.953,2.129-2.129,2.129S27.321,36.901,27.321,35.726z"/>
</g>
<g display="none">
	
		<polygon display="inline" fill="#FFE600" stroke="#FFE600" stroke-width="0.5" stroke-linecap="round" stroke-linejoin="round" stroke-miterlimit="10" points="
		28.192,39.521 30.381,39.878 26.892,44.689 27.443,41.312 25.503,40.995 28.809,36.055 	"/>
	
		<polygon display="inline" fill="#FFE600" stroke="#FFE600" stroke-width="0.5" stroke-linecap="round" stroke-linejoin="round" stroke-miterlimit="10" points="
		17.054,33.497 19.243,33.854 15.753,38.666 16.305,35.288 14.365,34.972 17.671,30.031 	"/>
</g>
<g>
	<g>
		
			<line fill="none" stroke="#80C7EA" stroke-width="2" stroke-linecap="round" stroke-linejoin="round" stroke-miterlimit="10" x1="25" y1="41.992" x2="25" y2="8.008"/>
		<g>
			
				<line fill="none" stroke="#80C7EA" stroke-width="2" stroke-linecap="round" stroke-linejoin="round" stroke-miterlimit="10" x1="21.621" y1="8.731" x2="24.881" y2="11.993"/>
			
				<line fill="none" stroke="#80C7EA" stroke-width="2" stroke-linecap="round" stroke-linejoin="round" stroke-miterlimit="10" x1="28.32" y1="8.731" x2="25.06" y2="11.993"/>
			<g>
				
					<line fill="none" stroke="#80C7EA" stroke-width="2" stroke-linecap="round" stroke-linejoin="round" stroke-miterlimit="10" x1="21.621" y1="12.787" x2="24.881" y2="16.048"/>
				
					<line fill="none" stroke="#80C7EA" stroke-width="2" stroke-linecap="round" stroke-linejoin="round" stroke-miterlimit="10" x1="28.32" y1="12.787" x2="25.06" y2="16.048"/>
			</g>
		</g>
		<g>
			
				<line fill="none" stroke="#80C7EA" stroke-width="2" stroke-linecap="round" stroke-linejoin="round" stroke-miterlimit="10" x1="28.381" y1="40.984" x2="25.119" y2="37.721"/>
			
				<line fill="none" stroke="#80C7EA" stroke-width="2" stroke-linecap="round" stroke-linejoin="round" stroke-miterlimit="10" x1="21.679" y1="40.984" x2="24.935" y2="37.721"/>
			<g>
				
					<line fill="none" stroke="#80C7EA" stroke-width="2" stroke-linecap="round" stroke-linejoin="round" stroke-miterlimit="10" x1="28.381" y1="36.927" x2="25.119" y2="33.667"/>
				
					<line fill="none" stroke="#80C7EA" stroke-width="2" stroke-linecap="round" stroke-linejoin="round" stroke-miterlimit="10" x1="21.679" y1="36.927" x2="24.935" y2="33.667"/>
			</g>
		</g>
	</g>
	<g>
		
			<line fill="none" stroke="#80C7EA" stroke-width="2" stroke-linecap="round" stroke-linejoin="round" stroke-miterlimit="10" x1="37.015" y1="37.01" x2="12.986" y2="12.989"/>
		<g>
			
				<line fill="none" stroke="#80C7EA" stroke-width="2" stroke-linecap="round" stroke-linejoin="round" stroke-miterlimit="10" x1="11.113" y1="15.889" x2="15.72" y2="15.889"/>
			
				<line fill="none" stroke="#80C7EA" stroke-width="2" stroke-linecap="round" stroke-linejoin="round" stroke-miterlimit="10" x1="15.845" y1="11.151" x2="15.845" y2="15.758"/>
			<g>
				
					<line fill="none" stroke="#80C7EA" stroke-width="2" stroke-linecap="round" stroke-linejoin="round" stroke-miterlimit="10" x1="13.978" y1="18.753" x2="18.585" y2="18.753"/>
				
					<line fill="none" stroke="#80C7EA" stroke-width="2" stroke-linecap="round" stroke-linejoin="round" stroke-miterlimit="10" x1="18.715" y1="14.014" x2="18.715" y2="18.627"/>
			</g>
		</g>
		<g>
			
				<line fill="none" stroke="#80C7EA" stroke-width="2" stroke-linecap="round" stroke-linejoin="round" stroke-miterlimit="10" x1="38.692" y1="33.914" x2="34.083" y2="33.914"/>
			
				<line fill="none" stroke="#80C7EA" stroke-width="2" stroke-linecap="round" stroke-linejoin="round" stroke-miterlimit="10" x1="33.953" y1="38.654" x2="33.953" y2="34.039"/>
			<g>
				
					<line fill="none" stroke="#80C7EA" stroke-width="2" stroke-linecap="round" stroke-linejoin="round" stroke-miterlimit="10" x1="35.828" y1="31.045" x2="31.215" y2="31.045"/>
				
					<line fill="none" stroke="#80C7EA" stroke-width="2" stroke-linecap="round" stroke-linejoin="round" stroke-miterlimit="10" x1="31.085" y1="35.788" x2="31.085" y2="31.176"/>
			</g>
		</g>
	</g>
	<g>
		
			<line fill="none" stroke="#80C7EA" stroke-width="2" stroke-linecap="round" stroke-linejoin="round" stroke-miterlimit="10" x1="41.994" y1="25.002" x2="8.005" y2="25.002"/>
		<g>
			
				<line fill="none" stroke="#80C7EA" stroke-width="2" stroke-linecap="round" stroke-linejoin="round" stroke-miterlimit="10" x1="8.729" y1="28.383" x2="11.99" y2="25.115"/>
			
				<line fill="none" stroke="#80C7EA" stroke-width="2" stroke-linecap="round" stroke-linejoin="round" stroke-miterlimit="10" x1="8.729" y1="21.676" x2="11.99" y2="24.938"/>
			<g>
				
					<line fill="none" stroke="#80C7EA" stroke-width="2" stroke-linecap="round" stroke-linejoin="round" stroke-miterlimit="10" x1="12.785" y1="28.383" x2="16.046" y2="25.115"/>
				
					<line fill="none" stroke="#80C7EA" stroke-width="2" stroke-linecap="round" stroke-linejoin="round" stroke-miterlimit="10" x1="12.785" y1="21.676" x2="16.046" y2="24.938"/>
			</g>
		</g>
		<g>
			
				<line fill="none" stroke="#80C7EA" stroke-width="2" stroke-linecap="round" stroke-linejoin="round" stroke-miterlimit="10" x1="40.986" y1="21.616" x2="37.725" y2="24.878"/>
			
				<line fill="none" stroke="#80C7EA" stroke-width="2" stroke-linecap="round" stroke-linejoin="round" stroke-miterlimit="10" x1="40.986" y1="28.322" x2="37.719" y2="25.061"/>
			<g>
				
					<line fill="none" stroke="#80C7EA" stroke-width="2" stroke-linecap="round" stroke-linejoin="round" stroke-miterlimit="10" x1="36.931" y1="21.616" x2="33.67" y2="24.878"/>
				
					<line fill="none" stroke="#80C7EA" stroke-width="2" stroke-linecap="round" stroke-linejoin="round" stroke-miterlimit="10" x1="36.931" y1="28.322" x2="33.67" y2="25.061"/>
			</g>
		</g>
	</g>
	<g>
		
			<line fill="none" stroke="#80C7EA" stroke-width="2" stroke-linecap="round" stroke-linejoin="round" stroke-miterlimit="10" x1="37.015" y1="12.989" x2="12.986" y2="37.01"/>
		<g>
			
				<line fill="none" stroke="#80C7EA" stroke-width="2" stroke-linecap="round" stroke-linejoin="round" stroke-miterlimit="10" x1="15.88" y1="38.891" x2="15.88" y2="34.282"/>
			
				<line fill="none" stroke="#80C7EA" stroke-width="2" stroke-linecap="round" stroke-linejoin="round" stroke-miterlimit="10" x1="11.148" y1="34.151" x2="15.755" y2="34.151"/>
			<g>
				
					<line fill="none" stroke="#80C7EA" stroke-width="2" stroke-linecap="round" stroke-linejoin="round" stroke-miterlimit="10" x1="18.757" y1="36.024" x2="18.757" y2="31.417"/>
				
					<line fill="none" stroke="#80C7EA" stroke-width="2" stroke-linecap="round" stroke-linejoin="round" stroke-miterlimit="10" x1="14.019" y1="31.288" x2="18.625" y2="31.288"/>
			</g>
		</g>
		<g>
			
				<line fill="none" stroke="#80C7EA" stroke-width="2" stroke-linecap="round" stroke-linejoin="round" stroke-miterlimit="10" x1="33.911" y1="11.311" x2="33.911" y2="15.918"/>
			
				<line fill="none" stroke="#80C7EA" stroke-width="2" stroke-linecap="round" stroke-linejoin="round" stroke-miterlimit="10" x1="38.649" y1="16.048" x2="34.037" y2="16.048"/>
			<g>
				
					<line fill="none" stroke="#80C7EA" stroke-width="2" stroke-linecap="round" stroke-linejoin="round" stroke-miterlimit="10" x1="31.047" y1="14.174" x2="31.047" y2="18.783"/>
				
					<line fill="none" stroke="#80C7EA" stroke-width="2" stroke-linecap="round" stroke-linejoin="round" stroke-miterlimit="10" x1="35.78" y1="18.913" x2="31.173" y2="18.913"/>
			</g>
		</g>
	</g>
</g>
</svg>
